<mxfile host="app.diagrams.net" modified="2023-08-28T05:09:29.229Z" agent="Mozilla/5.0 (X11; Linux x86_64) AppleWebKit/537.36 (KHTML, like Gecko) Chrome/115.0.0.0 Safari/537.36" etag="dvrPSr3Axen7MC4ceOiC" version="21.6.9" type="device">
  <diagram name="Page-1" id="_gDt53CmF_NlNrg3FtHI">
    <mxGraphModel dx="2002" dy="1144" grid="0" gridSize="10" guides="1" tooltips="1" connect="1" arrows="1" fold="1" page="0" pageScale="1" pageWidth="850" pageHeight="1100" math="0" shadow="0">
      <root>
        <mxCell id="0" />
        <mxCell id="1" parent="0" />
        <mxCell id="mALXOhTmPqSrnSPc4w2Z-1" value="clientes" style="shape=table;startSize=30;container=1;collapsible=1;childLayout=tableLayout;fixedRows=1;rowLines=0;fontStyle=1;align=center;resizeLast=1;html=1;fontSize=16;" vertex="1" parent="1">
          <mxGeometry x="132" y="-242" width="256.6589660644531" height="302.1164321899414" as="geometry" />
        </mxCell>
        <mxCell id="mALXOhTmPqSrnSPc4w2Z-2" value="" style="shape=tableRow;horizontal=0;startSize=0;swimlaneHead=0;swimlaneBody=0;fillColor=none;collapsible=0;dropTarget=0;points=[[0,0.5],[1,0.5]];portConstraint=eastwest;top=0;left=0;right=0;bottom=1;fontSize=16;" vertex="1" parent="mALXOhTmPqSrnSPc4w2Z-1">
          <mxGeometry y="30" width="256.6589660644531" height="30" as="geometry" />
        </mxCell>
        <mxCell id="mALXOhTmPqSrnSPc4w2Z-3" value="PK" style="shape=partialRectangle;connectable=0;fillColor=none;top=0;left=0;bottom=0;right=0;fontStyle=1;overflow=hidden;whiteSpace=wrap;html=1;fontSize=16;" vertex="1" parent="mALXOhTmPqSrnSPc4w2Z-2">
          <mxGeometry width="30" height="30" as="geometry">
            <mxRectangle width="30" height="30" as="alternateBounds" />
          </mxGeometry>
        </mxCell>
        <mxCell id="mALXOhTmPqSrnSPc4w2Z-4" value="cliente_id&amp;nbsp;&lt;font style=&quot;font-size: 14px;&quot;&gt;(INT AUTO)&lt;/font&gt;" style="shape=partialRectangle;connectable=0;fillColor=none;top=0;left=0;bottom=0;right=0;align=left;spacingLeft=6;fontStyle=5;overflow=hidden;whiteSpace=wrap;html=1;fontSize=16;" vertex="1" parent="mALXOhTmPqSrnSPc4w2Z-2">
          <mxGeometry x="30" width="226.65896606445312" height="30" as="geometry">
            <mxRectangle width="226.65896606445312" height="30" as="alternateBounds" />
          </mxGeometry>
        </mxCell>
        <mxCell id="mALXOhTmPqSrnSPc4w2Z-5" value="" style="shape=tableRow;horizontal=0;startSize=0;swimlaneHead=0;swimlaneBody=0;fillColor=none;collapsible=0;dropTarget=0;points=[[0,0.5],[1,0.5]];portConstraint=eastwest;top=0;left=0;right=0;bottom=0;fontSize=16;" vertex="1" parent="mALXOhTmPqSrnSPc4w2Z-1">
          <mxGeometry y="60" width="256.6589660644531" height="30" as="geometry" />
        </mxCell>
        <mxCell id="mALXOhTmPqSrnSPc4w2Z-6" value="" style="shape=partialRectangle;connectable=0;fillColor=none;top=0;left=0;bottom=0;right=0;editable=1;overflow=hidden;whiteSpace=wrap;html=1;fontSize=16;" vertex="1" parent="mALXOhTmPqSrnSPc4w2Z-5">
          <mxGeometry width="30" height="30" as="geometry">
            <mxRectangle width="30" height="30" as="alternateBounds" />
          </mxGeometry>
        </mxCell>
        <mxCell id="mALXOhTmPqSrnSPc4w2Z-7" value="nombre &lt;font style=&quot;font-size: 14px;&quot;&gt;(VARCHAR (50))&lt;/font&gt;" style="shape=partialRectangle;connectable=0;fillColor=none;top=0;left=0;bottom=0;right=0;align=left;spacingLeft=6;overflow=hidden;whiteSpace=wrap;html=1;fontSize=16;" vertex="1" parent="mALXOhTmPqSrnSPc4w2Z-5">
          <mxGeometry x="30" width="226.65896606445312" height="30" as="geometry">
            <mxRectangle width="226.65896606445312" height="30" as="alternateBounds" />
          </mxGeometry>
        </mxCell>
        <mxCell id="mALXOhTmPqSrnSPc4w2Z-8" value="" style="shape=tableRow;horizontal=0;startSize=0;swimlaneHead=0;swimlaneBody=0;fillColor=none;collapsible=0;dropTarget=0;points=[[0,0.5],[1,0.5]];portConstraint=eastwest;top=0;left=0;right=0;bottom=0;fontSize=16;" vertex="1" parent="mALXOhTmPqSrnSPc4w2Z-1">
          <mxGeometry y="90" width="256.6589660644531" height="30" as="geometry" />
        </mxCell>
        <mxCell id="mALXOhTmPqSrnSPc4w2Z-9" value="" style="shape=partialRectangle;connectable=0;fillColor=none;top=0;left=0;bottom=0;right=0;editable=1;overflow=hidden;whiteSpace=wrap;html=1;fontSize=16;" vertex="1" parent="mALXOhTmPqSrnSPc4w2Z-8">
          <mxGeometry width="30" height="30" as="geometry">
            <mxRectangle width="30" height="30" as="alternateBounds" />
          </mxGeometry>
        </mxCell>
        <mxCell id="mALXOhTmPqSrnSPc4w2Z-10" value="apellido&amp;nbsp;&lt;font style=&quot;font-size: 14px;&quot;&gt;(VARCHAR (50))&lt;/font&gt;" style="shape=partialRectangle;connectable=0;fillColor=none;top=0;left=0;bottom=0;right=0;align=left;spacingLeft=6;overflow=hidden;whiteSpace=wrap;html=1;fontSize=16;" vertex="1" parent="mALXOhTmPqSrnSPc4w2Z-8">
          <mxGeometry x="30" width="226.65896606445312" height="30" as="geometry">
            <mxRectangle width="226.65896606445312" height="30" as="alternateBounds" />
          </mxGeometry>
        </mxCell>
        <mxCell id="mALXOhTmPqSrnSPc4w2Z-11" value="" style="shape=tableRow;horizontal=0;startSize=0;swimlaneHead=0;swimlaneBody=0;fillColor=none;collapsible=0;dropTarget=0;points=[[0,0.5],[1,0.5]];portConstraint=eastwest;top=0;left=0;right=0;bottom=0;fontSize=16;" vertex="1" parent="mALXOhTmPqSrnSPc4w2Z-1">
          <mxGeometry y="120" width="256.6589660644531" height="30" as="geometry" />
        </mxCell>
        <mxCell id="mALXOhTmPqSrnSPc4w2Z-12" value="" style="shape=partialRectangle;connectable=0;fillColor=none;top=0;left=0;bottom=0;right=0;editable=1;overflow=hidden;whiteSpace=wrap;html=1;fontSize=16;" vertex="1" parent="mALXOhTmPqSrnSPc4w2Z-11">
          <mxGeometry width="30" height="30" as="geometry">
            <mxRectangle width="30" height="30" as="alternateBounds" />
          </mxGeometry>
        </mxCell>
        <mxCell id="mALXOhTmPqSrnSPc4w2Z-13" value="telefono&amp;nbsp;&lt;font style=&quot;font-size: 14px;&quot;&gt;(VARCHAR (10))&lt;/font&gt;" style="shape=partialRectangle;connectable=0;fillColor=none;top=0;left=0;bottom=0;right=0;align=left;spacingLeft=6;overflow=hidden;whiteSpace=wrap;html=1;fontSize=16;" vertex="1" parent="mALXOhTmPqSrnSPc4w2Z-11">
          <mxGeometry x="30" width="226.65896606445312" height="30" as="geometry">
            <mxRectangle width="226.65896606445312" height="30" as="alternateBounds" />
          </mxGeometry>
        </mxCell>
        <mxCell id="mALXOhTmPqSrnSPc4w2Z-27" value="" style="shape=tableRow;horizontal=0;startSize=0;swimlaneHead=0;swimlaneBody=0;fillColor=none;collapsible=0;dropTarget=0;points=[[0,0.5],[1,0.5]];portConstraint=eastwest;top=0;left=0;right=0;bottom=0;fontSize=16;" vertex="1" parent="mALXOhTmPqSrnSPc4w2Z-1">
          <mxGeometry y="150" width="256.6589660644531" height="30" as="geometry" />
        </mxCell>
        <mxCell id="mALXOhTmPqSrnSPc4w2Z-28" value="&lt;b&gt;UQ&lt;/b&gt;" style="shape=partialRectangle;connectable=0;fillColor=none;top=0;left=0;bottom=0;right=0;editable=1;overflow=hidden;whiteSpace=wrap;html=1;fontSize=16;" vertex="1" parent="mALXOhTmPqSrnSPc4w2Z-27">
          <mxGeometry width="30" height="30" as="geometry">
            <mxRectangle width="30" height="30" as="alternateBounds" />
          </mxGeometry>
        </mxCell>
        <mxCell id="mALXOhTmPqSrnSPc4w2Z-29" value="email &lt;font style=&quot;font-size: 14px;&quot;&gt;(VARCHAR (100))&lt;/font&gt;" style="shape=partialRectangle;connectable=0;fillColor=none;top=0;left=0;bottom=0;right=0;align=left;spacingLeft=6;overflow=hidden;whiteSpace=wrap;html=1;fontSize=16;" vertex="1" parent="mALXOhTmPqSrnSPc4w2Z-27">
          <mxGeometry x="30" width="226.65896606445312" height="30" as="geometry">
            <mxRectangle width="226.65896606445312" height="30" as="alternateBounds" />
          </mxGeometry>
        </mxCell>
        <mxCell id="mALXOhTmPqSrnSPc4w2Z-30" value="" style="shape=tableRow;horizontal=0;startSize=0;swimlaneHead=0;swimlaneBody=0;fillColor=none;collapsible=0;dropTarget=0;points=[[0,0.5],[1,0.5]];portConstraint=eastwest;top=0;left=0;right=0;bottom=0;fontSize=16;" vertex="1" parent="mALXOhTmPqSrnSPc4w2Z-1">
          <mxGeometry y="180" width="256.6589660644531" height="30" as="geometry" />
        </mxCell>
        <mxCell id="mALXOhTmPqSrnSPc4w2Z-31" value="&lt;b&gt;UQ&lt;/b&gt;" style="shape=partialRectangle;connectable=0;fillColor=none;top=0;left=0;bottom=0;right=0;editable=1;overflow=hidden;whiteSpace=wrap;html=1;fontSize=16;" vertex="1" parent="mALXOhTmPqSrnSPc4w2Z-30">
          <mxGeometry width="30" height="30" as="geometry">
            <mxRectangle width="30" height="30" as="alternateBounds" />
          </mxGeometry>
        </mxCell>
        <mxCell id="mALXOhTmPqSrnSPc4w2Z-32" value="direccion &lt;font style=&quot;font-size: 14px;&quot;&gt;(VARCHAR (100))&lt;/font&gt;" style="shape=partialRectangle;connectable=0;fillColor=none;top=0;left=0;bottom=0;right=0;align=left;spacingLeft=6;overflow=hidden;whiteSpace=wrap;html=1;fontSize=16;" vertex="1" parent="mALXOhTmPqSrnSPc4w2Z-30">
          <mxGeometry x="30" width="226.65896606445312" height="30" as="geometry">
            <mxRectangle width="226.65896606445312" height="30" as="alternateBounds" />
          </mxGeometry>
        </mxCell>
        <mxCell id="mALXOhTmPqSrnSPc4w2Z-33" value="" style="shape=tableRow;horizontal=0;startSize=0;swimlaneHead=0;swimlaneBody=0;fillColor=none;collapsible=0;dropTarget=0;points=[[0,0.5],[1,0.5]];portConstraint=eastwest;top=0;left=0;right=0;bottom=0;fontSize=16;" vertex="1" parent="mALXOhTmPqSrnSPc4w2Z-1">
          <mxGeometry y="210" width="256.6589660644531" height="32" as="geometry" />
        </mxCell>
        <mxCell id="mALXOhTmPqSrnSPc4w2Z-34" value="" style="shape=partialRectangle;connectable=0;fillColor=none;top=0;left=0;bottom=0;right=0;editable=1;overflow=hidden;whiteSpace=wrap;html=1;fontSize=16;" vertex="1" parent="mALXOhTmPqSrnSPc4w2Z-33">
          <mxGeometry width="30" height="32" as="geometry">
            <mxRectangle width="30" height="32" as="alternateBounds" />
          </mxGeometry>
        </mxCell>
        <mxCell id="mALXOhTmPqSrnSPc4w2Z-35" value="cp &lt;font style=&quot;font-size: 14px;&quot;&gt;CHAR(5)&lt;/font&gt;" style="shape=partialRectangle;connectable=0;fillColor=none;top=0;left=0;bottom=0;right=0;align=left;spacingLeft=6;overflow=hidden;whiteSpace=wrap;html=1;fontSize=16;" vertex="1" parent="mALXOhTmPqSrnSPc4w2Z-33">
          <mxGeometry x="30" width="226.65896606445312" height="32" as="geometry">
            <mxRectangle width="226.65896606445312" height="32" as="alternateBounds" />
          </mxGeometry>
        </mxCell>
        <mxCell id="mALXOhTmPqSrnSPc4w2Z-36" value="" style="shape=tableRow;horizontal=0;startSize=0;swimlaneHead=0;swimlaneBody=0;fillColor=none;collapsible=0;dropTarget=0;points=[[0,0.5],[1,0.5]];portConstraint=eastwest;top=0;left=0;right=0;bottom=0;fontSize=16;" vertex="1" parent="mALXOhTmPqSrnSPc4w2Z-1">
          <mxGeometry y="242" width="256.6589660644531" height="30" as="geometry" />
        </mxCell>
        <mxCell id="mALXOhTmPqSrnSPc4w2Z-37" value="" style="shape=partialRectangle;connectable=0;fillColor=none;top=0;left=0;bottom=0;right=0;editable=1;overflow=hidden;whiteSpace=wrap;html=1;fontSize=16;" vertex="1" parent="mALXOhTmPqSrnSPc4w2Z-36">
          <mxGeometry width="30" height="30" as="geometry">
            <mxRectangle width="30" height="30" as="alternateBounds" />
          </mxGeometry>
        </mxCell>
        <mxCell id="mALXOhTmPqSrnSPc4w2Z-38" value="ciudad &lt;font style=&quot;font-size: 14px;&quot;&gt;(VARCHAR(50))&lt;/font&gt;" style="shape=partialRectangle;connectable=0;fillColor=none;top=0;left=0;bottom=0;right=0;align=left;spacingLeft=6;overflow=hidden;whiteSpace=wrap;html=1;fontSize=16;" vertex="1" parent="mALXOhTmPqSrnSPc4w2Z-36">
          <mxGeometry x="30" width="226.65896606445312" height="30" as="geometry">
            <mxRectangle width="226.65896606445312" height="30" as="alternateBounds" />
          </mxGeometry>
        </mxCell>
        <mxCell id="mALXOhTmPqSrnSPc4w2Z-39" value="" style="shape=tableRow;horizontal=0;startSize=0;swimlaneHead=0;swimlaneBody=0;fillColor=none;collapsible=0;dropTarget=0;points=[[0,0.5],[1,0.5]];portConstraint=eastwest;top=0;left=0;right=0;bottom=0;fontSize=16;" vertex="1" parent="mALXOhTmPqSrnSPc4w2Z-1">
          <mxGeometry y="272" width="256.6589660644531" height="30" as="geometry" />
        </mxCell>
        <mxCell id="mALXOhTmPqSrnSPc4w2Z-40" value="&lt;b&gt;FK&lt;/b&gt;" style="shape=partialRectangle;connectable=0;fillColor=none;top=0;left=0;bottom=0;right=0;editable=1;overflow=hidden;whiteSpace=wrap;html=1;fontSize=16;" vertex="1" parent="mALXOhTmPqSrnSPc4w2Z-39">
          <mxGeometry width="30" height="30" as="geometry">
            <mxRectangle width="30" height="30" as="alternateBounds" />
          </mxGeometry>
        </mxCell>
        <mxCell id="mALXOhTmPqSrnSPc4w2Z-41" value="pais &lt;span style=&quot;font-size: 14px;&quot;&gt;(INT)&lt;/span&gt;" style="shape=partialRectangle;connectable=0;fillColor=none;top=0;left=0;bottom=0;right=0;align=left;spacingLeft=6;overflow=hidden;whiteSpace=wrap;html=1;fontSize=16;" vertex="1" parent="mALXOhTmPqSrnSPc4w2Z-39">
          <mxGeometry x="30" width="226.65896606445312" height="30" as="geometry">
            <mxRectangle width="226.65896606445312" height="30" as="alternateBounds" />
          </mxGeometry>
        </mxCell>
        <mxCell id="mALXOhTmPqSrnSPc4w2Z-42" value="productos" style="shape=table;startSize=30;container=1;collapsible=1;childLayout=tableLayout;fixedRows=1;rowLines=0;fontStyle=1;align=center;resizeLast=1;html=1;" vertex="1" parent="1">
          <mxGeometry x="-179" y="108" width="180" height="210" as="geometry" />
        </mxCell>
        <mxCell id="mALXOhTmPqSrnSPc4w2Z-43" value="" style="shape=tableRow;horizontal=0;startSize=0;swimlaneHead=0;swimlaneBody=0;fillColor=none;collapsible=0;dropTarget=0;points=[[0,0.5],[1,0.5]];portConstraint=eastwest;top=0;left=0;right=0;bottom=1;" vertex="1" parent="mALXOhTmPqSrnSPc4w2Z-42">
          <mxGeometry y="30" width="180" height="30" as="geometry" />
        </mxCell>
        <mxCell id="mALXOhTmPqSrnSPc4w2Z-44" value="PK" style="shape=partialRectangle;connectable=0;fillColor=none;top=0;left=0;bottom=0;right=0;fontStyle=1;overflow=hidden;whiteSpace=wrap;html=1;" vertex="1" parent="mALXOhTmPqSrnSPc4w2Z-43">
          <mxGeometry width="30" height="30" as="geometry">
            <mxRectangle width="30" height="30" as="alternateBounds" />
          </mxGeometry>
        </mxCell>
        <mxCell id="mALXOhTmPqSrnSPc4w2Z-45" value="producto_id&amp;nbsp;(INT AUTO)" style="shape=partialRectangle;connectable=0;fillColor=none;top=0;left=0;bottom=0;right=0;align=left;spacingLeft=6;fontStyle=5;overflow=hidden;whiteSpace=wrap;html=1;" vertex="1" parent="mALXOhTmPqSrnSPc4w2Z-43">
          <mxGeometry x="30" width="150" height="30" as="geometry">
            <mxRectangle width="150" height="30" as="alternateBounds" />
          </mxGeometry>
        </mxCell>
        <mxCell id="mALXOhTmPqSrnSPc4w2Z-49" value="" style="shape=tableRow;horizontal=0;startSize=0;swimlaneHead=0;swimlaneBody=0;fillColor=none;collapsible=0;dropTarget=0;points=[[0,0.5],[1,0.5]];portConstraint=eastwest;top=0;left=0;right=0;bottom=0;" vertex="1" parent="mALXOhTmPqSrnSPc4w2Z-42">
          <mxGeometry y="60" width="180" height="30" as="geometry" />
        </mxCell>
        <mxCell id="mALXOhTmPqSrnSPc4w2Z-50" value="" style="shape=partialRectangle;connectable=0;fillColor=none;top=0;left=0;bottom=0;right=0;editable=1;overflow=hidden;whiteSpace=wrap;html=1;" vertex="1" parent="mALXOhTmPqSrnSPc4w2Z-49">
          <mxGeometry width="30" height="30" as="geometry">
            <mxRectangle width="30" height="30" as="alternateBounds" />
          </mxGeometry>
        </mxCell>
        <mxCell id="mALXOhTmPqSrnSPc4w2Z-51" value="nombre &lt;font style=&quot;font-size: 10px;&quot;&gt;(VARCHAR (50))&lt;/font&gt;" style="shape=partialRectangle;connectable=0;fillColor=none;top=0;left=0;bottom=0;right=0;align=left;spacingLeft=6;overflow=hidden;whiteSpace=wrap;html=1;" vertex="1" parent="mALXOhTmPqSrnSPc4w2Z-49">
          <mxGeometry x="30" width="150" height="30" as="geometry">
            <mxRectangle width="150" height="30" as="alternateBounds" />
          </mxGeometry>
        </mxCell>
        <mxCell id="mALXOhTmPqSrnSPc4w2Z-52" value="" style="shape=tableRow;horizontal=0;startSize=0;swimlaneHead=0;swimlaneBody=0;fillColor=none;collapsible=0;dropTarget=0;points=[[0,0.5],[1,0.5]];portConstraint=eastwest;top=0;left=0;right=0;bottom=0;" vertex="1" parent="mALXOhTmPqSrnSPc4w2Z-42">
          <mxGeometry y="90" width="180" height="30" as="geometry" />
        </mxCell>
        <mxCell id="mALXOhTmPqSrnSPc4w2Z-53" value="" style="shape=partialRectangle;connectable=0;fillColor=none;top=0;left=0;bottom=0;right=0;editable=1;overflow=hidden;whiteSpace=wrap;html=1;" vertex="1" parent="mALXOhTmPqSrnSPc4w2Z-52">
          <mxGeometry width="30" height="30" as="geometry">
            <mxRectangle width="30" height="30" as="alternateBounds" />
          </mxGeometry>
        </mxCell>
        <mxCell id="mALXOhTmPqSrnSPc4w2Z-54" value="descripcion &lt;font style=&quot;font-size: 10px;&quot;&gt;(TEXT)&lt;/font&gt;" style="shape=partialRectangle;connectable=0;fillColor=none;top=0;left=0;bottom=0;right=0;align=left;spacingLeft=6;overflow=hidden;whiteSpace=wrap;html=1;" vertex="1" parent="mALXOhTmPqSrnSPc4w2Z-52">
          <mxGeometry x="30" width="150" height="30" as="geometry">
            <mxRectangle width="150" height="30" as="alternateBounds" />
          </mxGeometry>
        </mxCell>
        <mxCell id="mALXOhTmPqSrnSPc4w2Z-55" value="" style="shape=tableRow;horizontal=0;startSize=0;swimlaneHead=0;swimlaneBody=0;fillColor=none;collapsible=0;dropTarget=0;points=[[0,0.5],[1,0.5]];portConstraint=eastwest;top=0;left=0;right=0;bottom=0;" vertex="1" parent="mALXOhTmPqSrnSPc4w2Z-42">
          <mxGeometry y="120" width="180" height="30" as="geometry" />
        </mxCell>
        <mxCell id="mALXOhTmPqSrnSPc4w2Z-56" value="" style="shape=partialRectangle;connectable=0;fillColor=none;top=0;left=0;bottom=0;right=0;editable=1;overflow=hidden;whiteSpace=wrap;html=1;" vertex="1" parent="mALXOhTmPqSrnSPc4w2Z-55">
          <mxGeometry width="30" height="30" as="geometry">
            <mxRectangle width="30" height="30" as="alternateBounds" />
          </mxGeometry>
        </mxCell>
        <mxCell id="mALXOhTmPqSrnSPc4w2Z-57" value="foto &lt;font style=&quot;font-size: 10px;&quot;&gt;(VARCHAR (255))&lt;/font&gt;" style="shape=partialRectangle;connectable=0;fillColor=none;top=0;left=0;bottom=0;right=0;align=left;spacingLeft=6;overflow=hidden;whiteSpace=wrap;html=1;" vertex="1" parent="mALXOhTmPqSrnSPc4w2Z-55">
          <mxGeometry x="30" width="150" height="30" as="geometry">
            <mxRectangle width="150" height="30" as="alternateBounds" />
          </mxGeometry>
        </mxCell>
        <mxCell id="mALXOhTmPqSrnSPc4w2Z-58" value="" style="shape=tableRow;horizontal=0;startSize=0;swimlaneHead=0;swimlaneBody=0;fillColor=none;collapsible=0;dropTarget=0;points=[[0,0.5],[1,0.5]];portConstraint=eastwest;top=0;left=0;right=0;bottom=0;" vertex="1" parent="mALXOhTmPqSrnSPc4w2Z-42">
          <mxGeometry y="150" width="180" height="30" as="geometry" />
        </mxCell>
        <mxCell id="mALXOhTmPqSrnSPc4w2Z-59" value="" style="shape=partialRectangle;connectable=0;fillColor=none;top=0;left=0;bottom=0;right=0;editable=1;overflow=hidden;whiteSpace=wrap;html=1;" vertex="1" parent="mALXOhTmPqSrnSPc4w2Z-58">
          <mxGeometry width="30" height="30" as="geometry">
            <mxRectangle width="30" height="30" as="alternateBounds" />
          </mxGeometry>
        </mxCell>
        <mxCell id="mALXOhTmPqSrnSPc4w2Z-60" value="precio &lt;font style=&quot;font-size: 10px;&quot;&gt;(FLOAT)&lt;/font&gt;" style="shape=partialRectangle;connectable=0;fillColor=none;top=0;left=0;bottom=0;right=0;align=left;spacingLeft=6;overflow=hidden;whiteSpace=wrap;html=1;" vertex="1" parent="mALXOhTmPqSrnSPc4w2Z-58">
          <mxGeometry x="30" width="150" height="30" as="geometry">
            <mxRectangle width="150" height="30" as="alternateBounds" />
          </mxGeometry>
        </mxCell>
        <mxCell id="mALXOhTmPqSrnSPc4w2Z-61" value="" style="shape=tableRow;horizontal=0;startSize=0;swimlaneHead=0;swimlaneBody=0;fillColor=none;collapsible=0;dropTarget=0;points=[[0,0.5],[1,0.5]];portConstraint=eastwest;top=0;left=0;right=0;bottom=0;" vertex="1" parent="mALXOhTmPqSrnSPc4w2Z-42">
          <mxGeometry y="180" width="180" height="30" as="geometry" />
        </mxCell>
        <mxCell id="mALXOhTmPqSrnSPc4w2Z-62" value="" style="shape=partialRectangle;connectable=0;fillColor=none;top=0;left=0;bottom=0;right=0;editable=1;overflow=hidden;whiteSpace=wrap;html=1;" vertex="1" parent="mALXOhTmPqSrnSPc4w2Z-61">
          <mxGeometry width="30" height="30" as="geometry">
            <mxRectangle width="30" height="30" as="alternateBounds" />
          </mxGeometry>
        </mxCell>
        <mxCell id="mALXOhTmPqSrnSPc4w2Z-63" value="cantidad &lt;font style=&quot;font-size: 10px;&quot;&gt;(INT)&lt;/font&gt;" style="shape=partialRectangle;connectable=0;fillColor=none;top=0;left=0;bottom=0;right=0;align=left;spacingLeft=6;overflow=hidden;whiteSpace=wrap;html=1;" vertex="1" parent="mALXOhTmPqSrnSPc4w2Z-61">
          <mxGeometry x="30" width="150" height="30" as="geometry">
            <mxRectangle width="150" height="30" as="alternateBounds" />
          </mxGeometry>
        </mxCell>
        <mxCell id="mALXOhTmPqSrnSPc4w2Z-83" value="ventas" style="shape=table;startSize=30;container=1;collapsible=1;childLayout=tableLayout;fixedRows=1;rowLines=0;fontStyle=1;align=center;resizeLast=1;html=1;" vertex="1" parent="1">
          <mxGeometry x="-197" y="-171" width="180" height="146" as="geometry" />
        </mxCell>
        <mxCell id="mALXOhTmPqSrnSPc4w2Z-84" value="" style="shape=tableRow;horizontal=0;startSize=0;swimlaneHead=0;swimlaneBody=0;fillColor=none;collapsible=0;dropTarget=0;points=[[0,0.5],[1,0.5]];portConstraint=eastwest;top=0;left=0;right=0;bottom=1;" vertex="1" parent="mALXOhTmPqSrnSPc4w2Z-83">
          <mxGeometry y="30" width="180" height="30" as="geometry" />
        </mxCell>
        <mxCell id="mALXOhTmPqSrnSPc4w2Z-85" value="PK" style="shape=partialRectangle;connectable=0;fillColor=none;top=0;left=0;bottom=0;right=0;fontStyle=1;overflow=hidden;whiteSpace=wrap;html=1;" vertex="1" parent="mALXOhTmPqSrnSPc4w2Z-84">
          <mxGeometry width="30" height="30" as="geometry">
            <mxRectangle width="30" height="30" as="alternateBounds" />
          </mxGeometry>
        </mxCell>
        <mxCell id="mALXOhTmPqSrnSPc4w2Z-86" value="venta_id&amp;nbsp;(INT AUTO)" style="shape=partialRectangle;connectable=0;fillColor=none;top=0;left=0;bottom=0;right=0;align=left;spacingLeft=6;fontStyle=5;overflow=hidden;whiteSpace=wrap;html=1;" vertex="1" parent="mALXOhTmPqSrnSPc4w2Z-84">
          <mxGeometry x="30" width="150" height="30" as="geometry">
            <mxRectangle width="150" height="30" as="alternateBounds" />
          </mxGeometry>
        </mxCell>
        <mxCell id="mALXOhTmPqSrnSPc4w2Z-87" value="" style="shape=tableRow;horizontal=0;startSize=0;swimlaneHead=0;swimlaneBody=0;fillColor=none;collapsible=0;dropTarget=0;points=[[0,0.5],[1,0.5]];portConstraint=eastwest;top=0;left=0;right=0;bottom=0;" vertex="1" parent="mALXOhTmPqSrnSPc4w2Z-83">
          <mxGeometry y="60" width="180" height="30" as="geometry" />
        </mxCell>
        <mxCell id="mALXOhTmPqSrnSPc4w2Z-88" value="&lt;b&gt;FK&lt;/b&gt;" style="shape=partialRectangle;connectable=0;fillColor=none;top=0;left=0;bottom=0;right=0;editable=1;overflow=hidden;whiteSpace=wrap;html=1;" vertex="1" parent="mALXOhTmPqSrnSPc4w2Z-87">
          <mxGeometry width="30" height="30" as="geometry">
            <mxRectangle width="30" height="30" as="alternateBounds" />
          </mxGeometry>
        </mxCell>
        <mxCell id="mALXOhTmPqSrnSPc4w2Z-89" value="cliente_id &lt;font style=&quot;font-size: 10px;&quot;&gt;(INT)&lt;/font&gt;&lt;span style=&quot;white-space: pre;&quot;&gt;&#x9;&lt;/span&gt;" style="shape=partialRectangle;connectable=0;fillColor=none;top=0;left=0;bottom=0;right=0;align=left;spacingLeft=6;overflow=hidden;whiteSpace=wrap;html=1;" vertex="1" parent="mALXOhTmPqSrnSPc4w2Z-87">
          <mxGeometry x="30" width="150" height="30" as="geometry">
            <mxRectangle width="150" height="30" as="alternateBounds" />
          </mxGeometry>
        </mxCell>
        <mxCell id="mALXOhTmPqSrnSPc4w2Z-90" value="" style="shape=tableRow;horizontal=0;startSize=0;swimlaneHead=0;swimlaneBody=0;fillColor=none;collapsible=0;dropTarget=0;points=[[0,0.5],[1,0.5]];portConstraint=eastwest;top=0;left=0;right=0;bottom=0;" vertex="1" parent="mALXOhTmPqSrnSPc4w2Z-83">
          <mxGeometry y="90" width="180" height="26" as="geometry" />
        </mxCell>
        <mxCell id="mALXOhTmPqSrnSPc4w2Z-91" value="" style="shape=partialRectangle;connectable=0;fillColor=none;top=0;left=0;bottom=0;right=0;editable=1;overflow=hidden;whiteSpace=wrap;html=1;" vertex="1" parent="mALXOhTmPqSrnSPc4w2Z-90">
          <mxGeometry width="30" height="26" as="geometry">
            <mxRectangle width="30" height="26" as="alternateBounds" />
          </mxGeometry>
        </mxCell>
        <mxCell id="mALXOhTmPqSrnSPc4w2Z-92" value="fecha &lt;font style=&quot;font-size: 10px;&quot;&gt;(DATETIME)&lt;/font&gt;" style="shape=partialRectangle;connectable=0;fillColor=none;top=0;left=0;bottom=0;right=0;align=left;spacingLeft=6;overflow=hidden;whiteSpace=wrap;html=1;" vertex="1" parent="mALXOhTmPqSrnSPc4w2Z-90">
          <mxGeometry x="30" width="150" height="26" as="geometry">
            <mxRectangle width="150" height="26" as="alternateBounds" />
          </mxGeometry>
        </mxCell>
        <mxCell id="mALXOhTmPqSrnSPc4w2Z-93" value="" style="shape=tableRow;horizontal=0;startSize=0;swimlaneHead=0;swimlaneBody=0;fillColor=none;collapsible=0;dropTarget=0;points=[[0,0.5],[1,0.5]];portConstraint=eastwest;top=0;left=0;right=0;bottom=0;" vertex="1" parent="mALXOhTmPqSrnSPc4w2Z-83">
          <mxGeometry y="116" width="180" height="30" as="geometry" />
        </mxCell>
        <mxCell id="mALXOhTmPqSrnSPc4w2Z-94" value="" style="shape=partialRectangle;connectable=0;fillColor=none;top=0;left=0;bottom=0;right=0;editable=1;overflow=hidden;whiteSpace=wrap;html=1;" vertex="1" parent="mALXOhTmPqSrnSPc4w2Z-93">
          <mxGeometry width="30" height="30" as="geometry">
            <mxRectangle width="30" height="30" as="alternateBounds" />
          </mxGeometry>
        </mxCell>
        <mxCell id="mALXOhTmPqSrnSPc4w2Z-95" value="monto &lt;font style=&quot;font-size: 10px;&quot;&gt;(FLOAT)&lt;/font&gt;" style="shape=partialRectangle;connectable=0;fillColor=none;top=0;left=0;bottom=0;right=0;align=left;spacingLeft=6;overflow=hidden;whiteSpace=wrap;html=1;" vertex="1" parent="mALXOhTmPqSrnSPc4w2Z-93">
          <mxGeometry x="30" width="150" height="30" as="geometry">
            <mxRectangle width="150" height="30" as="alternateBounds" />
          </mxGeometry>
        </mxCell>
        <mxCell id="mALXOhTmPqSrnSPc4w2Z-96" value="articulos_x_venta" style="shape=table;startSize=26;container=1;collapsible=1;childLayout=tableLayout;fixedRows=1;rowLines=0;fontStyle=1;align=center;resizeLast=1;html=1;" vertex="1" parent="1">
          <mxGeometry x="-483" y="-100" width="180" height="150" as="geometry" />
        </mxCell>
        <mxCell id="mALXOhTmPqSrnSPc4w2Z-97" value="" style="shape=tableRow;horizontal=0;startSize=0;swimlaneHead=0;swimlaneBody=0;fillColor=none;collapsible=0;dropTarget=0;points=[[0,0.5],[1,0.5]];portConstraint=eastwest;top=0;left=0;right=0;bottom=1;" vertex="1" parent="mALXOhTmPqSrnSPc4w2Z-96">
          <mxGeometry y="26" width="180" height="30" as="geometry" />
        </mxCell>
        <mxCell id="mALXOhTmPqSrnSPc4w2Z-98" value="PK" style="shape=partialRectangle;connectable=0;fillColor=none;top=0;left=0;bottom=0;right=0;fontStyle=1;overflow=hidden;whiteSpace=wrap;html=1;" vertex="1" parent="mALXOhTmPqSrnSPc4w2Z-97">
          <mxGeometry width="30" height="30" as="geometry">
            <mxRectangle width="30" height="30" as="alternateBounds" />
          </mxGeometry>
        </mxCell>
        <mxCell id="mALXOhTmPqSrnSPc4w2Z-99" value="articulo_id &lt;font style=&quot;font-size: 10px;&quot;&gt;(INT AUTO)&lt;/font&gt;" style="shape=partialRectangle;connectable=0;fillColor=none;top=0;left=0;bottom=0;right=0;align=left;spacingLeft=6;fontStyle=5;overflow=hidden;whiteSpace=wrap;html=1;" vertex="1" parent="mALXOhTmPqSrnSPc4w2Z-97">
          <mxGeometry x="30" width="150" height="30" as="geometry">
            <mxRectangle width="150" height="30" as="alternateBounds" />
          </mxGeometry>
        </mxCell>
        <mxCell id="mALXOhTmPqSrnSPc4w2Z-100" value="" style="shape=tableRow;horizontal=0;startSize=0;swimlaneHead=0;swimlaneBody=0;fillColor=none;collapsible=0;dropTarget=0;points=[[0,0.5],[1,0.5]];portConstraint=eastwest;top=0;left=0;right=0;bottom=0;" vertex="1" parent="mALXOhTmPqSrnSPc4w2Z-96">
          <mxGeometry y="56" width="180" height="30" as="geometry" />
        </mxCell>
        <mxCell id="mALXOhTmPqSrnSPc4w2Z-101" value="&lt;b&gt;FK&lt;/b&gt;" style="shape=partialRectangle;connectable=0;fillColor=none;top=0;left=0;bottom=0;right=0;editable=1;overflow=hidden;whiteSpace=wrap;html=1;" vertex="1" parent="mALXOhTmPqSrnSPc4w2Z-100">
          <mxGeometry width="30" height="30" as="geometry">
            <mxRectangle width="30" height="30" as="alternateBounds" />
          </mxGeometry>
        </mxCell>
        <mxCell id="mALXOhTmPqSrnSPc4w2Z-102" value="venta_id &lt;font style=&quot;font-size: 10px;&quot;&gt;(INT)&lt;/font&gt;" style="shape=partialRectangle;connectable=0;fillColor=none;top=0;left=0;bottom=0;right=0;align=left;spacingLeft=6;overflow=hidden;whiteSpace=wrap;html=1;" vertex="1" parent="mALXOhTmPqSrnSPc4w2Z-100">
          <mxGeometry x="30" width="150" height="30" as="geometry">
            <mxRectangle width="150" height="30" as="alternateBounds" />
          </mxGeometry>
        </mxCell>
        <mxCell id="mALXOhTmPqSrnSPc4w2Z-103" value="" style="shape=tableRow;horizontal=0;startSize=0;swimlaneHead=0;swimlaneBody=0;fillColor=none;collapsible=0;dropTarget=0;points=[[0,0.5],[1,0.5]];portConstraint=eastwest;top=0;left=0;right=0;bottom=0;" vertex="1" parent="mALXOhTmPqSrnSPc4w2Z-96">
          <mxGeometry y="86" width="180" height="30" as="geometry" />
        </mxCell>
        <mxCell id="mALXOhTmPqSrnSPc4w2Z-104" value="&lt;b&gt;FK&lt;/b&gt;" style="shape=partialRectangle;connectable=0;fillColor=none;top=0;left=0;bottom=0;right=0;editable=1;overflow=hidden;whiteSpace=wrap;html=1;" vertex="1" parent="mALXOhTmPqSrnSPc4w2Z-103">
          <mxGeometry width="30" height="30" as="geometry">
            <mxRectangle width="30" height="30" as="alternateBounds" />
          </mxGeometry>
        </mxCell>
        <mxCell id="mALXOhTmPqSrnSPc4w2Z-105" value="producto_id &lt;font style=&quot;font-size: 10px;&quot;&gt;(INT)&lt;/font&gt;" style="shape=partialRectangle;connectable=0;fillColor=none;top=0;left=0;bottom=0;right=0;align=left;spacingLeft=6;overflow=hidden;whiteSpace=wrap;html=1;" vertex="1" parent="mALXOhTmPqSrnSPc4w2Z-103">
          <mxGeometry x="30" width="150" height="30" as="geometry">
            <mxRectangle width="150" height="30" as="alternateBounds" />
          </mxGeometry>
        </mxCell>
        <mxCell id="mALXOhTmPqSrnSPc4w2Z-106" value="" style="shape=tableRow;horizontal=0;startSize=0;swimlaneHead=0;swimlaneBody=0;fillColor=none;collapsible=0;dropTarget=0;points=[[0,0.5],[1,0.5]];portConstraint=eastwest;top=0;left=0;right=0;bottom=0;" vertex="1" parent="mALXOhTmPqSrnSPc4w2Z-96">
          <mxGeometry y="116" width="180" height="30" as="geometry" />
        </mxCell>
        <mxCell id="mALXOhTmPqSrnSPc4w2Z-107" value="" style="shape=partialRectangle;connectable=0;fillColor=none;top=0;left=0;bottom=0;right=0;editable=1;overflow=hidden;whiteSpace=wrap;html=1;" vertex="1" parent="mALXOhTmPqSrnSPc4w2Z-106">
          <mxGeometry width="30" height="30" as="geometry">
            <mxRectangle width="30" height="30" as="alternateBounds" />
          </mxGeometry>
        </mxCell>
        <mxCell id="mALXOhTmPqSrnSPc4w2Z-108" value="cantidad &lt;font style=&quot;font-size: 10px;&quot;&gt;(INT)&lt;/font&gt;" style="shape=partialRectangle;connectable=0;fillColor=none;top=0;left=0;bottom=0;right=0;align=left;spacingLeft=6;overflow=hidden;whiteSpace=wrap;html=1;" vertex="1" parent="mALXOhTmPqSrnSPc4w2Z-106">
          <mxGeometry x="30" width="150" height="30" as="geometry">
            <mxRectangle width="150" height="30" as="alternateBounds" />
          </mxGeometry>
        </mxCell>
        <mxCell id="mALXOhTmPqSrnSPc4w2Z-109" value="paises" style="shape=table;startSize=26;container=1;collapsible=1;childLayout=tableLayout;fixedRows=1;rowLines=0;fontStyle=1;align=center;resizeLast=1;html=1;" vertex="1" parent="1">
          <mxGeometry x="432" width="180" height="120" as="geometry" />
        </mxCell>
        <mxCell id="mALXOhTmPqSrnSPc4w2Z-110" value="" style="shape=tableRow;horizontal=0;startSize=0;swimlaneHead=0;swimlaneBody=0;fillColor=none;collapsible=0;dropTarget=0;points=[[0,0.5],[1,0.5]];portConstraint=eastwest;top=0;left=0;right=0;bottom=1;" vertex="1" parent="mALXOhTmPqSrnSPc4w2Z-109">
          <mxGeometry y="26" width="180" height="30" as="geometry" />
        </mxCell>
        <mxCell id="mALXOhTmPqSrnSPc4w2Z-111" value="PK" style="shape=partialRectangle;connectable=0;fillColor=none;top=0;left=0;bottom=0;right=0;fontStyle=1;overflow=hidden;whiteSpace=wrap;html=1;" vertex="1" parent="mALXOhTmPqSrnSPc4w2Z-110">
          <mxGeometry width="30" height="30" as="geometry">
            <mxRectangle width="30" height="30" as="alternateBounds" />
          </mxGeometry>
        </mxCell>
        <mxCell id="mALXOhTmPqSrnSPc4w2Z-112" value="pais_id&amp;nbsp;(INT AUTO)" style="shape=partialRectangle;connectable=0;fillColor=none;top=0;left=0;bottom=0;right=0;align=left;spacingLeft=6;fontStyle=5;overflow=hidden;whiteSpace=wrap;html=1;" vertex="1" parent="mALXOhTmPqSrnSPc4w2Z-110">
          <mxGeometry x="30" width="150" height="30" as="geometry">
            <mxRectangle width="150" height="30" as="alternateBounds" />
          </mxGeometry>
        </mxCell>
        <mxCell id="mALXOhTmPqSrnSPc4w2Z-113" value="" style="shape=tableRow;horizontal=0;startSize=0;swimlaneHead=0;swimlaneBody=0;fillColor=none;collapsible=0;dropTarget=0;points=[[0,0.5],[1,0.5]];portConstraint=eastwest;top=0;left=0;right=0;bottom=0;" vertex="1" parent="mALXOhTmPqSrnSPc4w2Z-109">
          <mxGeometry y="56" width="180" height="30" as="geometry" />
        </mxCell>
        <mxCell id="mALXOhTmPqSrnSPc4w2Z-114" value="" style="shape=partialRectangle;connectable=0;fillColor=none;top=0;left=0;bottom=0;right=0;editable=1;overflow=hidden;whiteSpace=wrap;html=1;" vertex="1" parent="mALXOhTmPqSrnSPc4w2Z-113">
          <mxGeometry width="30" height="30" as="geometry">
            <mxRectangle width="30" height="30" as="alternateBounds" />
          </mxGeometry>
        </mxCell>
        <mxCell id="mALXOhTmPqSrnSPc4w2Z-115" value="nombre &lt;font style=&quot;font-size: 10px;&quot;&gt;(VARCHAR (50))&lt;/font&gt;" style="shape=partialRectangle;connectable=0;fillColor=none;top=0;left=0;bottom=0;right=0;align=left;spacingLeft=6;overflow=hidden;whiteSpace=wrap;html=1;" vertex="1" parent="mALXOhTmPqSrnSPc4w2Z-113">
          <mxGeometry x="30" width="150" height="30" as="geometry">
            <mxRectangle width="150" height="30" as="alternateBounds" />
          </mxGeometry>
        </mxCell>
        <mxCell id="mALXOhTmPqSrnSPc4w2Z-116" value="" style="shape=tableRow;horizontal=0;startSize=0;swimlaneHead=0;swimlaneBody=0;fillColor=none;collapsible=0;dropTarget=0;points=[[0,0.5],[1,0.5]];portConstraint=eastwest;top=0;left=0;right=0;bottom=0;" vertex="1" parent="mALXOhTmPqSrnSPc4w2Z-109">
          <mxGeometry y="86" width="180" height="30" as="geometry" />
        </mxCell>
        <mxCell id="mALXOhTmPqSrnSPc4w2Z-117" value="" style="shape=partialRectangle;connectable=0;fillColor=none;top=0;left=0;bottom=0;right=0;editable=1;overflow=hidden;whiteSpace=wrap;html=1;" vertex="1" parent="mALXOhTmPqSrnSPc4w2Z-116">
          <mxGeometry width="30" height="30" as="geometry">
            <mxRectangle width="30" height="30" as="alternateBounds" />
          </mxGeometry>
        </mxCell>
        <mxCell id="mALXOhTmPqSrnSPc4w2Z-118" value="dominio &lt;font style=&quot;font-size: 10px;&quot;&gt;(CHAR (2))&lt;/font&gt;" style="shape=partialRectangle;connectable=0;fillColor=none;top=0;left=0;bottom=0;right=0;align=left;spacingLeft=6;overflow=hidden;whiteSpace=wrap;html=1;" vertex="1" parent="mALXOhTmPqSrnSPc4w2Z-116">
          <mxGeometry x="30" width="150" height="30" as="geometry">
            <mxRectangle width="150" height="30" as="alternateBounds" />
          </mxGeometry>
        </mxCell>
        <mxCell id="mALXOhTmPqSrnSPc4w2Z-123" value="" style="edgeStyle=entityRelationEdgeStyle;fontSize=12;html=1;endArrow=ERmandOne;startArrow=ERmandOne;rounded=0;entryX=1;entryY=0.5;entryDx=0;entryDy=0;exitX=0;exitY=0.5;exitDx=0;exitDy=0;" edge="1" parent="1" source="mALXOhTmPqSrnSPc4w2Z-110" target="mALXOhTmPqSrnSPc4w2Z-39">
          <mxGeometry width="100" height="100" relative="1" as="geometry">
            <mxPoint x="-97" y="115" as="sourcePoint" />
            <mxPoint x="3" y="15" as="targetPoint" />
          </mxGeometry>
        </mxCell>
        <mxCell id="mALXOhTmPqSrnSPc4w2Z-124" value="" style="edgeStyle=entityRelationEdgeStyle;fontSize=12;html=1;endArrow=ERoneToMany;rounded=0;" edge="1" parent="1" source="mALXOhTmPqSrnSPc4w2Z-2" target="mALXOhTmPqSrnSPc4w2Z-87">
          <mxGeometry width="100" height="100" relative="1" as="geometry">
            <mxPoint x="-102" y="5" as="sourcePoint" />
            <mxPoint x="59" y="107" as="targetPoint" />
            <Array as="points">
              <mxPoint x="59" y="-36" />
            </Array>
          </mxGeometry>
        </mxCell>
        <mxCell id="mALXOhTmPqSrnSPc4w2Z-125" value="" style="edgeStyle=entityRelationEdgeStyle;fontSize=12;html=1;endArrow=ERoneToMany;rounded=0;exitX=0;exitY=0.5;exitDx=0;exitDy=0;" edge="1" parent="1" source="mALXOhTmPqSrnSPc4w2Z-84" target="mALXOhTmPqSrnSPc4w2Z-100">
          <mxGeometry width="100" height="100" relative="1" as="geometry">
            <mxPoint x="-277" y="102" as="sourcePoint" />
            <mxPoint x="-177" y="2" as="targetPoint" />
            <Array as="points">
              <mxPoint x="-317" y="12" />
            </Array>
          </mxGeometry>
        </mxCell>
        <mxCell id="mALXOhTmPqSrnSPc4w2Z-126" value="" style="edgeStyle=entityRelationEdgeStyle;fontSize=12;html=1;endArrow=ERmandOne;startArrow=ERmandOne;rounded=0;entryX=1;entryY=0.5;entryDx=0;entryDy=0;exitX=0;exitY=0.5;exitDx=0;exitDy=0;" edge="1" parent="1" source="mALXOhTmPqSrnSPc4w2Z-43" target="mALXOhTmPqSrnSPc4w2Z-103">
          <mxGeometry width="100" height="100" relative="1" as="geometry">
            <mxPoint x="-97" y="115" as="sourcePoint" />
            <mxPoint x="3" y="15" as="targetPoint" />
          </mxGeometry>
        </mxCell>
      </root>
    </mxGraphModel>
  </diagram>
</mxfile>
